<svg xmlns="http://www.w3.org/2000/svg" version="1.1" xmlns:xlink="http://www.w3.org/1999/xlink" xmlns:svgjs="http://svgjs.dev/svgjs" width="1000" height="383" viewBox="0 0 1000 383"><g transform="matrix(1,0,0,1,-0.6060390840567607,-0.14607069156130592)"><svg viewBox="0 0 396 152" data-background-color="#ffffff" preserveAspectRatio="xMidYMid meet" height="383" width="1000" xmlns="http://www.w3.org/2000/svg" xmlns:xlink="http://www.w3.org/1999/xlink"><defs></defs><g id="tight-bounds" transform="matrix(1,0,0,1,0.2399914772864804,0.05797061388334157)"><svg viewBox="0 0 395.52 151.88405877223332" height="151.88405877223332" width="395.52"><g><svg viewBox="0 0 680.4196934819213 261.2886951724138" height="151.88405877223332" width="395.52"><g transform="matrix(1,0,0,1,284.89969348192136,44.93395457310646)"><svg viewBox="0 0 395.52 171.42078602620086" height="171.42078602620086" width="395.52"><g><svg viewBox="0 0 395.52 171.42078602620086" height="171.42078602620086" width="395.52"><g><svg viewBox="0 0 395.52 171.42078602620086" height="171.42078602620086" width="395.52"><g transform="matrix(1,0,0,1,0,0)"><svg width="395.52" viewBox="-7.699999809265137 -37.650001525878906 137.37998962402344 59.55000305175781" height="171.42078602620086" data-palette-color="#10403b"><path d="M21.5-31.35L21.75-31.15Q21.75-31.05 21.68-30.93 21.6-30.8 20.2-28.1L20.2-28.1Q18.65-25.2 12.05-12.95L12.05-12.95Q19.45-15.7 25.3-21.18 31.15-26.65 31.15-30.8L31.15-30.8Q31.15-33.05 28.95-34.5 26.75-35.95 22.3-35.95 17.85-35.95 12.73-34.08 7.6-32.2 3.7-29.6-0.2-27-2.83-24.25-5.45-21.5-5.45-19.75L-5.45-19.75Q-5.45-17.8-2.33-17.8 0.8-17.8 4.83-19.88 8.85-21.95 12.05-25.4L12.05-25.4Q12.6-26.05 12.75-26.05L12.75-26.05Q13.1-26.05 13.1-25.7L13.1-25.7Q13.1-25.6 12.75-25L12.75-25Q11.1-22.5 5.43-19.13-0.25-15.75-3.98-15.75-7.7-15.75-7.7-18.1L-7.7-18.1Q-7.7-20.2-4.73-23.53-1.75-26.85 2.7-30 7.15-33.15 13.05-35.4 18.95-37.65 23.93-37.65 28.9-37.65 31.25-36.08 33.6-34.5 33.6-32L33.6-32Q33.6-27.65 28.08-22.1 22.55-16.55 14.75-13.2L14.75-13.2Q19.8-13.15 23.15-8.83 26.5-4.5 26.55 1.2L26.55 1.2Q26.55 1.9 26.3 1.9L26.3 1.9Q25.9 1.9 25.75 1.03 25.6 0.15 25.4-0.7 25.2-1.55 24.18-3.7 23.15-5.85 21.78-7.5 20.4-9.15 17.8-10.5 15.2-11.85 11.95-11.85L11.95-11.85 11.4-11.85Q7.8-5.3 5.35-1L5.35-1Q5.05-0.35 4.25 0 3.45 0.35 3.03 0.35 2.6 0.35 2.6 0.1L2.6 0.1 8.75-11.1Q6.75-10.6 4.65-10.35L4.65-10.35Q3.75-10.35 3.75-10.65L3.75-10.65Q3.75-11.2 4.3-11.25L4.3-11.25Q6.6-11.4 9.3-12.1L9.3-12.1 19.35-30.4Q19.5-30.8 20.25-31.08 21-31.35 21.5-31.35L21.5-31.35ZM31-4.85L31-4.85Q28-4.85 28-6.15L28-6.15Q28-7.7 31.55-9.83 35.1-11.95 37.95-11.95L37.95-11.95Q39.4-11.95 39.4-11.05L39.4-11.05Q39.4-10.55 38.65-9.95 37.9-9.35 37.2-9 36.5-8.65 36.4-8.65L36.4-8.65Q36.1-8.65 36-8.9L36-8.9Q35.9-9.25 36.52-9.63 37.15-10 37.15-10.45 37.15-10.9 36.02-10.9 34.9-10.9 32.5-9.33 30.1-7.75 30.1-6.75L30.1-6.75Q30.1-6 31.85-6L31.85-6Q32.15-6 32.95-6.05 33.75-6.1 33.75-5.85 33.75-5.6 31.27-4.05 28.8-2.5 28.8-1.4L28.8-1.4Q28.8-0.15 30.42-0.15 32.05-0.15 34.1-1L34.1-1Q37.4-2.45 40.1-4.1L40.1-4.1 41.05-4.7Q41.1-4.6 41.1-4.3 41.1-4 40.65-3.8L40.65-3.8Q38-2 34.85-0.38 31.7 1.25 29.17 1.25 26.65 1.25 26.65-0.43 26.65-2.1 31-4.85ZM49.05-5.95L49.05-5.95Q48.75-5.95 48.75-6.3L48.75-6.3 48.9-6.65Q49.8-7.5 49.8-8.1L49.8-8.1Q49.8-8.85 49-8.85L49-8.85Q47.25-8.85 44.27-6.43 41.3-4 41.3-2.1L41.3-2.1Q41.3-1.3 42.35-1.3 43.4-1.3 44.77-2.18 46.15-3.05 47.12-3.93 48.1-4.8 48.2-4.8L48.2-4.8Q48.7-4.75 48.7-4.3L48.7-4.3Q48.7-4.1 47.92-3 47.15-1.9 47.15-1.25L47.15-1.25Q47.15-0.75 47.97-0.75 48.8-0.75 50.9-1.73 53-2.7 54.6-3.7L54.6-3.7 56.2-4.7Q56.25-4.6 56.25-4.3 56.25-4 55.8-3.8L55.8-3.8Q49.05 0.8 46.4 0.8L46.4 0.8Q45.1 0.8 45.1-0.5L45.1-0.5Q45.1-1.05 45.3-1.65L45.3-1.65Q44.95-1.25 43.22-0.43 41.5 0.4 40.15 0.4 38.8 0.4 38.8-0.85L38.8-0.85Q38.8-3.8 42.9-6.88 47-9.95 49.8-9.95L49.8-9.95Q51.45-9.95 51.45-8.55L51.45-8.55Q51.45-7.75 50.45-6.85 49.45-5.95 49.05-5.95ZM60.89-1.2L61.39-1.4Q63.79-2.4 66.54-4.1L66.54-4.1 67.49-4.7Q67.54-4.6 67.54-4.3 67.54-4 67.09-3.8L67.09-3.8Q64.44-2 61.79-0.65 59.14 0.7 56.89 0.7L56.89 0.7Q54.04 0.7 54.04-1.35L54.04-1.35Q54.04-3.8 57.47-6.88 60.89-9.95 64.24-9.95L64.24-9.95Q65.64-9.95 65.64-8.75L65.64-8.75Q65.64-8.05 64.39-7L64.39-7Q62.64-5.55 62.19-5.55 61.74-5.55 61.74-5.95L61.74-5.95Q61.74-6.1 61.94-6.25L61.94-6.25Q62.44-6.55 63.07-7.18 63.69-7.8 63.69-8.25L63.69-8.25Q63.69-8.95 63.04-8.95L63.04-8.95Q61.64-8.95 58.94-6.43 56.24-3.9 56.24-2.35L56.24-2.35Q56.24-0.6 58.14-0.6L58.14-0.6Q59.39-0.6 60.89-1.2L60.89-1.2ZM67.14-16.5L67.14-16.5Q70.54-16.5 73.84-16.55L73.84-16.55Q79.19-23.4 81.14-23.4L81.14-23.4Q81.84-23.4 81.84-22.65L81.84-22.65Q81.84-20.25 78.34-16.65L78.34-16.65 82.14-16.7Q85.94-16.85 86.79-16.85 87.64-16.85 87.64-16.65L87.64-16.65Q87.64-15.7 86.34-15.65L86.34-15.65 76.94-15.25Q74.49-12.95 70.89-10.4L70.89-10.4Q67.09-4.15 67.09-1.9L67.09-1.9Q67.09-0.75 68.57-0.75 70.04-0.75 73.24-2.35L73.24-2.35 77.29-4.7Q77.34-4.6 77.34-4.3 77.34-4 76.89-3.8L76.89-3.8Q75.29-2.7 73.39-1.6L73.39-1.6Q69.34 0.45 67.19 0.45L67.19 0.45Q66.19 0.45 65.64 0.05 65.09-0.35 65.04-0.75L65.04-0.75 64.94-1.15Q64.94-2.85 67.24-6.88 69.54-10.9 72.69-15.1L72.69-15.1Q70.29-15 68.14-15 65.99-15 65.99-15.5L65.99-15.5Q65.99-16.45 67.14-16.5ZM80.29-21.6L80.29-21.6Q80.29-21.85 80.09-21.85L80.09-21.85Q78.94-21.85 74.99-16.6L74.99-16.6 77.49-16.6Q80.29-19.65 80.29-21.6ZM76.09-15.2L76.09-15.2Q74.49-15.2 73.94-15.15L73.94-15.15Q73.49-14.5 72.69-13.25 71.89-12 71.59-11.55L71.59-11.55Q74.19-13.45 76.09-15.2ZM76.14-3.2L76.14-3.2Q75.84-3.1 75.59-3.1 75.34-3.1 75.29-3.35L75.29-3.35Q78.84-5.55 80.04-6.65 81.24-7.75 81.69-8.2 82.14-8.65 82.49-9L82.49-9Q83.09-9.65 83.39-9.65L83.39-9.65Q84.09-9.55 84.09-9.1L84.09-9.1Q84.09-8.9 83.54-7.98 82.99-7.05 80.56-2.55 78.14 1.95 76.89 4.15L76.89 4.15Q77.89 4 78.79 4L78.79 4Q81.19 4 81.19 5.25L81.19 5.25Q81.19 5.95 80.26 7.03 79.34 8.1 78.84 8.1 78.34 8.1 78.34 7.75L78.34 7.75Q78.34 7.55 78.89 7.13 79.44 6.7 79.44 6.1L79.44 6.1Q79.44 5.3 78.41 5.3 77.39 5.3 76.14 5.55L76.14 5.55Q67.04 21.9 62.89 21.9L62.89 21.9Q61.19 21.9 61.19 20.15L61.19 20.15Q61.19 17 65.49 11.73 69.79 6.45 74.94 4.65L74.94 4.65Q78.04-1.05 80.74-6.55L80.74-6.55Q80.29-6 76.14-3.2ZM63.69 20.45L63.69 20.45Q66.24 20.45 74.14 6.15L74.14 6.15Q69.54 7.9 66.21 12.38 62.89 16.85 62.89 19.4L62.89 19.4Q62.89 20.45 63.69 20.45ZM86.04-15.15L86.04-15.15Q86.79-15.15 86.79-14.4 86.79-13.65 86.09-12.88 85.39-12.1 84.54-12.1L84.54-12.1Q83.84-12.1 83.84-13.08 83.84-14.05 84.64-14.6 85.44-15.15 86.04-15.15ZM93.84-5.95L93.84-5.95Q93.54-5.95 93.54-6.3L93.54-6.3 93.69-6.65Q94.59-7.5 94.59-8.1L94.59-8.1Q94.59-8.85 93.79-8.85L93.79-8.85Q92.04-8.85 89.06-6.43 86.09-4 86.09-2.1L86.09-2.1Q86.09-1.3 87.14-1.3 88.19-1.3 89.56-2.18 90.94-3.05 91.91-3.93 92.89-4.8 92.99-4.8L92.99-4.8Q93.49-4.75 93.49-4.3L93.49-4.3Q93.49-4.1 92.71-3 91.94-1.9 91.94-1.25L91.94-1.25Q91.94-0.75 92.76-0.75 93.59-0.75 95.69-1.73 97.79-2.7 99.39-3.7L99.39-3.7 100.99-4.7Q101.04-4.6 101.04-4.3 101.04-4 100.59-3.8L100.59-3.8Q93.84 0.8 91.19 0.8L91.19 0.8Q89.89 0.8 89.89-0.5L89.89-0.5Q89.89-1.05 90.09-1.65L90.09-1.65Q89.74-1.25 88.01-0.43 86.29 0.4 84.94 0.4 83.59 0.4 83.59-0.85L83.59-0.85Q83.59-3.8 87.69-6.88 91.79-9.95 94.59-9.95L94.59-9.95Q96.24-9.95 96.24-8.55L96.24-8.55Q96.24-7.75 95.24-6.85 94.24-5.95 93.84-5.95ZM105.68-1.2L106.18-1.4Q108.58-2.4 111.33-4.1L111.33-4.1 112.28-4.7Q112.33-4.6 112.33-4.3 112.33-4 111.88-3.8L111.88-3.8Q109.23-2 106.58-0.65 103.93 0.7 101.68 0.7L101.68 0.7Q98.83 0.7 98.83-1.35L98.83-1.35Q98.83-3.8 102.26-6.88 105.68-9.95 109.03-9.95L109.03-9.95Q110.43-9.95 110.43-8.75L110.43-8.75Q110.43-8.05 109.18-7L109.18-7Q107.43-5.55 106.98-5.55 106.53-5.55 106.53-5.95L106.53-5.95Q106.53-6.1 106.73-6.25L106.73-6.25Q107.23-6.55 107.86-7.18 108.48-7.8 108.48-8.25L108.48-8.25Q108.48-8.95 107.83-8.95L107.83-8.95Q106.43-8.95 103.73-6.43 101.03-3.9 101.03-2.35L101.03-2.35Q101.03-0.6 102.93-0.6L102.93-0.6Q104.18-0.6 105.68-1.2L105.68-1.2ZM122.73-2.3L122.73-2.3 126.83-4.7Q126.88-4.6 126.88-4.3 126.88-4 126.43-3.8L126.43-3.8Q119.63 0.75 116.73 0.75L116.73 0.75Q114.23 0.75 114.23-2.55L114.23-2.55Q114.23-3.9 114.68-5.03 115.13-6.15 116.13-6.15L116.13-6.15Q119.58-6.15 121.51-7.2 123.43-8.25 123.43-9.38 123.43-10.5 121.83-10.5L121.83-10.5Q118.23-10.5 112.68-4L112.68-4Q110.98-0.8 110.13 0.9L110.13 0.9Q109.88 1.35 109.43 1.35L109.43 1.35Q108.43 1.35 108.43 0.65L108.43 0.65Q108.43 0.35 108.63-0.05L108.63-0.05 113.08-7.85Q117.33-15.35 121.78-21.35 126.23-27.35 128.48-27.35L128.48-27.35Q129.23-27.35 129.53-26.65L129.53-26.65Q129.68-26.4 129.68-26.05L129.68-26.05Q129.68-24.25 126.58-20.4 123.48-16.55 120.78-13.9 118.08-11.25 115.28-8.75L115.28-8.75 113.88-6.25Q119.28-11.75 123.28-11.75L123.28-11.75Q125.58-11.75 125.58-10.25L125.58-10.25Q125.58-8.6 123.01-6.95 120.43-5.3 116.58-5.3L116.58-5.3Q116.03-4.5 116.03-3.5L116.03-3.5Q116.03-0.7 118.23-0.7L118.23-0.7Q119.83-0.7 122.58-2.2L122.58-2.2Q122.68-2.3 122.73-2.3ZM128.03-25.5L128.03-25.5Q128.03-26 127.78-26L127.78-26Q125.03-26 116.33-10.7L116.33-10.7Q120.73-14.75 124.38-18.98 128.03-23.2 128.03-25.5Z" opacity="1" transform="matrix(1,0,0,1,0,0)" fill="#10403b" class="undefined-text-0" data-fill-palette-color="primary" id="text-0"></path></svg></g></svg></g></svg></g></svg></g><g><svg viewBox="0 0 244.43135999999996 261.2886951724138" height="261.2886951724138" width="244.43135999999996"><g><svg xmlns="http://www.w3.org/2000/svg" xmlns:xlink="http://www.w3.org/1999/xlink" version="1.1" x="0" y="0" viewBox="3 1 58 62" style="enable-background:new 0 0 64 64;" xml:space="preserve" height="261.2886951724138" width="244.43135999999996" class="icon-icon-0" data-fill-palette-color="accent" id="icon-0"><g fill="#10403b" data-fill-palette-color="accent"><path d="M58 1H28c-1.654 0-3 1.346-3 3v25.753C23.418 29.265 21.74 29 20 29c-9.374 0-17 7.626-17 17s7.626 17 17 17c7.634 0 14.107-5.059 16.247-12H58c1.654 0 3-1.346 3-3V4C61 2.346 59.654 1 58 1zM19 31.051v2c-4.029 0.309-7.55 2.453-9.717 5.607l-1.739-1.004C10.064 33.905 14.232 31.367 19 31.051zM6.554 39.392l1.735 1.002C7.472 42.094 7 43.991 7 46c0 1.973 0.447 3.884 1.276 5.614l-1.721 0.994C5.569 50.611 5 48.373 5 46S5.569 41.389 6.554 39.392zM7.544 54.346l1.746-1.008c0.68 0.99 1.485 1.902 2.434 2.687l1.273-1.541C10.457 52.384 9 49.291 9 46c0-6.065 4.935-11 11-11 1.948 0 3.874 0.527 5.568 1.525l1.016-1.723c-1.712-1.009-3.625-1.606-5.584-1.76v-1.992c4.768 0.317 8.936 2.855 11.456 6.603l-1.746 1.008c-0.68-0.99-1.485-1.902-2.434-2.687l-1.273 1.541C29.543 39.616 31 42.709 31 46c0 6.065-4.935 11-11 11-1.949 0-3.874-0.528-5.568-1.526l-1.016 1.723c1.712 1.009 3.624 1.607 5.584 1.761v1.992C14.232 60.633 10.064 58.095 7.544 54.346zM21 60.949v-2c4.029-0.309 7.55-2.453 9.717-5.607l1.739 1.004C29.936 58.095 25.768 60.633 21 60.949zM33.446 52.608l-1.735-1.002C32.528 49.906 33 48.009 33 46c0-1.973-0.447-3.884-1.276-5.614l1.721-0.994C34.431 41.389 35 43.627 35 46S34.431 50.611 33.446 52.608zM59 48c0 0.552-0.448 1-1 1H36.719C36.893 48.024 37 47.025 37 46c0-6.877-4.112-12.8-10-15.474V4c0-0.552 0.448-1 1-1h30c0.552 0 1 0.448 1 1V48z" fill="#10403b" data-fill-palette-color="accent"></path><path d="M51.292 23.639l2.19-10.952-6.835 4.968-3.654-4.173-3.647 4.172-6.829-4.97 2.191 10.955C33.655 24.674 33 26.112 33 27.701c0 1.771 0.802 3.411 2.2 4.499l7.8 6.066 7.8-6.066c1.398-1.088 2.2-2.728 2.2-4.499C53 26.112 52.345 24.674 51.292 23.639zM35.483 17.316l4.163 3.03 3.349-3.828 3.352 3.827 4.171-3.032-1.025 5.127C48.817 22.157 48.076 22 47.299 22h-0.352c-1.483 0-2.881 0.562-3.947 1.588C41.934 22.562 40.536 22 39.053 22h-0.352c-0.777 0-1.518 0.157-2.193 0.44L35.483 17.316zM49.571 30.622L43 35.733l-6.571-5.111C35.521 29.915 35 28.851 35 27.701 35 25.66 36.66 24 38.701 24h0.352c0.988 0 1.918 0.385 2.617 1.084l1.33 1.33 1.33-1.33C45.029 24.385 45.959 24 46.947 24h0.352C49.34 24 51 25.66 51 27.701 51 28.851 50.479 29.915 49.571 30.622z" fill="#10403b" data-fill-palette-color="accent"></path><circle cx="43" cy="20" r="1.0" fill="#10403b" data-fill-palette-color="accent"></circle><rect x="29" y="5" width="4" height="2" fill="#10403b" data-fill-palette-color="accent"></rect><rect x="53" y="45" width="4" height="2" fill="#10403b" data-fill-palette-color="accent"></rect><path d="M20 52.414l5.879-5.879C26.602 45.812 27 44.851 27 43.828 27 41.718 25.282 40 23.172 40c-1.022 0-1.984 0.398-2.707 1.121L20 41.586l-0.465-0.465C18.812 40.398 17.851 40 16.828 40 14.718 40 13 41.718 13 43.828c0 1.022 0.398 1.984 1.121 2.707L20 52.414zM16.828 42c0.481 0 0.953 0.195 1.293 0.535L20 44.414l1.879-1.879C22.219 42.195 22.69 42 23.172 42 24.18 42 25 42.82 25 43.828c0 0.481-0.195 0.953-0.535 1.293L20 49.586l-4.465-4.465C15.195 44.781 15 44.31 15 43.828 15 42.82 15.82 42 16.828 42z" fill="#10403b" data-fill-palette-color="accent"></path></g></svg></g></svg></g></svg></g></svg><rect width="395.52" height="151.88405877223332" fill="none" stroke="none" visibility="hidden"></rect></g></svg></g></svg>